<svg width="442" height="339" viewBox="0 0 442 339" fill="none" xmlns="http://www.w3.org/2000/svg">
<path d="M-23.7059 -55H-59V-22.2619M-23.7059 -55V-22.2619M-23.7059 -55H11.5882M-23.7059 -22.2619H-59M-23.7059 -22.2619H11.5882M-23.7059 -22.2619V10.4762M-59 -22.2619V10.4762M11.5882 -55V-22.2619M11.5882 -55H46.8824M11.5882 -22.2619H46.8824M11.5882 -22.2619V10.4762M46.8824 -55V-22.2619M46.8824 -55H82.1765M46.8824 -22.2619H82.1765M46.8824 -22.2619V10.4762M82.1765 -55V-22.2619M82.1765 -55H117.471M82.1765 -22.2619H117.471M82.1765 -22.2619V10.4762M117.471 -55V-22.2619M117.471 -55H152.765M117.471 -22.2619H152.765M117.471 -22.2619V10.4762M152.765 -55V-22.2619M152.765 -55H188.059M152.765 -22.2619H188.059M152.765 -22.2619V10.4762M188.059 -55V-22.2619M188.059 -55H223.353M188.059 -22.2619H223.353M188.059 -22.2619V10.4762M223.353 -55V-22.2619M223.353 -55H258.647M223.353 -22.2619H258.647M223.353 -22.2619V10.4762M258.647 -55V-22.2619M258.647 -55H293.941M258.647 -22.2619H293.941M258.647 -22.2619V10.4762M293.941 -55V-22.2619M293.941 -55H329.235M293.941 -22.2619H329.235M293.941 -22.2619V10.4762M329.235 -55V-22.2619M329.235 -55H364.529M329.235 -22.2619H364.529M329.235 -22.2619V10.4762M364.529 -55V-22.2619M364.529 -55H399.824M364.529 -22.2619H399.824M364.529 -22.2619V10.4762M399.824 -55V-22.2619M399.824 -55H435.118M399.824 -22.2619H435.118M399.824 -22.2619V10.4762M435.118 -55V-22.2619M435.118 -55H470.412M435.118 -22.2619H470.412M435.118 -22.2619V10.4762M470.412 -55V-22.2619M470.412 -55H505.706M470.412 -22.2619H505.706M470.412 -22.2619V10.4762M505.706 -55V-22.2619M505.706 -55H541V-22.2619M505.706 -22.2619H541M505.706 -22.2619V10.4762M541 -22.2619V10.4762M-23.7059 10.4762H-59M-23.7059 10.4762H11.5882M-23.7059 10.4762V43.2143M-59 10.4762V43.2143M11.5882 10.4762H46.8824M11.5882 10.4762V43.2143M46.8824 10.4762H82.1765M46.8824 10.4762V43.2143M82.1765 10.4762H117.471M82.1765 10.4762V43.2143M117.471 10.4762H152.765M117.471 10.4762V43.2143M152.765 10.4762H188.059M152.765 10.4762V43.2143M188.059 10.4762H223.353M188.059 10.4762V43.2143M223.353 10.4762H258.647M223.353 10.4762V43.2143M258.647 10.4762H293.941M258.647 10.4762V43.2143M293.941 10.4762H329.235M293.941 10.4762V43.2143M329.235 10.4762H364.529M329.235 10.4762V43.2143M364.529 10.4762H399.824M364.529 10.4762V43.2143M399.824 10.4762H435.118M399.824 10.4762V43.2143M435.118 10.4762H470.412M435.118 10.4762V43.2143M470.412 10.4762H505.706M470.412 10.4762V43.2143M505.706 10.4762H541M505.706 10.4762V43.2143M541 10.4762V43.2143M-23.7059 43.2143H-59M-23.7059 43.2143H11.5882M-23.7059 43.2143V75.9524M-59 43.2143V75.9524M11.5882 43.2143H46.8824M11.5882 43.2143V75.9524M46.8824 43.2143H82.1765M46.8824 43.2143V75.9524M82.1765 43.2143H117.471M82.1765 43.2143V75.9524M117.471 43.2143H152.765M117.471 43.2143V75.9524M152.765 43.2143H188.059M152.765 43.2143V75.9524M188.059 43.2143H223.353M188.059 43.2143V75.9524M223.353 43.2143H258.647M223.353 43.2143V75.9524M258.647 43.2143H293.941M258.647 43.2143V75.9524M293.941 43.2143H329.235M293.941 43.2143V75.9524M329.235 43.2143H364.529M329.235 43.2143V75.9524M364.529 43.2143H399.824M364.529 43.2143V75.9524M399.824 43.2143H435.118M399.824 43.2143V75.9524M435.118 43.2143H470.412M435.118 43.2143V75.9524M470.412 43.2143H505.706M470.412 43.2143V75.9524M505.706 43.2143H541M505.706 43.2143V75.9524M541 43.2143V75.9524M-23.7059 75.9524H-59M-23.7059 75.9524H11.5882M-23.7059 75.9524V108.69M-59 75.9524V108.69M11.5882 75.9524H46.8824M11.5882 75.9524V108.69M46.8824 75.9524H82.1765M46.8824 75.9524V108.69M82.1765 75.9524H117.471M82.1765 75.9524V108.69M117.471 75.9524H152.765M117.471 75.9524V108.69M152.765 75.9524H188.059M152.765 75.9524V108.69M188.059 75.9524H223.353M188.059 75.9524V108.69M223.353 75.9524H258.647M223.353 75.9524V108.69M258.647 75.9524H293.941M258.647 75.9524V108.69M293.941 75.9524H329.235M293.941 75.9524V108.69M329.235 75.9524H364.529M329.235 75.9524V108.69M364.529 75.9524H399.824M364.529 75.9524V108.69M399.824 75.9524H435.118M399.824 75.9524V108.69M435.118 75.9524H470.412M435.118 75.9524V108.69M470.412 75.9524H505.706M470.412 75.9524V108.69M505.706 75.9524H541M505.706 75.9524V108.69M541 75.9524V108.69M-23.7059 108.69H-59M-23.7059 108.69H11.5882M-23.7059 108.69V141.429M-59 108.69V141.429M11.5882 108.69H46.8824M11.5882 108.69V141.429M46.8824 108.69H82.1765M46.8824 108.69V141.429M82.1765 108.69H117.471M82.1765 108.69V141.429M117.471 108.69H152.765M117.471 108.69V141.429M152.765 108.69H188.059M152.765 108.69V141.429M188.059 108.69H223.353M188.059 108.69V141.429M223.353 108.69H258.647M223.353 108.69V141.429M258.647 108.69H293.941M258.647 108.69V141.429M293.941 108.69H329.235M293.941 108.69V141.429M329.235 108.69H364.529M329.235 108.69V141.429M364.529 108.69H399.824M364.529 108.69V141.429M399.824 108.69H435.118M399.824 108.69V141.429M435.118 108.69H470.412M435.118 108.69V141.429M470.412 108.69H505.706M470.412 108.69V141.429M505.706 108.69H541M505.706 108.69V141.429M541 108.69V141.429M-23.7059 141.429H-59M-23.7059 141.429H11.5882M-23.7059 141.429V174.167M-59 141.429V174.167M11.5882 141.429H46.8824M11.5882 141.429V174.167M46.8824 141.429H82.1765M46.8824 141.429V174.167M82.1765 141.429H117.471M82.1765 141.429V174.167M117.471 141.429H152.765M117.471 141.429V174.167M152.765 141.429H188.059M152.765 141.429V174.167M188.059 141.429H223.353M188.059 141.429V174.167M223.353 141.429H258.647M223.353 141.429V174.167M258.647 141.429H293.941M258.647 141.429V174.167M293.941 141.429H329.235M293.941 141.429V174.167M329.235 141.429H364.529M329.235 141.429V174.167M364.529 141.429H399.824M364.529 141.429V174.167M399.824 141.429H435.118M399.824 141.429V174.167M435.118 141.429H470.412M435.118 141.429V174.167M470.412 141.429H505.706M470.412 141.429V174.167M505.706 141.429H541M505.706 141.429V174.167M541 141.429V174.167M-23.7059 174.167H-59M-23.7059 174.167H11.5882M-23.7059 174.167V206.905M-59 174.167V206.905M11.5882 174.167H46.8824M11.5882 174.167V206.905M46.8824 174.167H82.1765M46.8824 174.167V206.905M82.1765 174.167H117.471M82.1765 174.167V206.905M117.471 174.167H152.765M117.471 174.167V206.905M152.765 174.167H188.059M152.765 174.167V206.905M188.059 174.167H223.353M188.059 174.167V206.905M223.353 174.167H258.647M223.353 174.167V206.905M258.647 174.167H293.941M258.647 174.167V206.905M293.941 174.167H329.235M293.941 174.167V206.905M329.235 174.167H364.529M329.235 174.167V206.905M364.529 174.167H399.824M364.529 174.167V206.905M399.824 174.167H435.118M399.824 174.167V206.905M435.118 174.167H470.412M435.118 174.167V206.905M470.412 174.167H505.706M470.412 174.167V206.905M505.706 174.167H541M505.706 174.167V206.905M541 174.167V206.905M-23.7059 206.905H-59M-23.7059 206.905H11.5882M-23.7059 206.905V239.643M-59 206.905V239.643M11.5882 206.905H46.8824M11.5882 206.905V239.643M46.8824 206.905H82.1765M46.8824 206.905V239.643M82.1765 206.905H117.471M82.1765 206.905V239.643M117.471 206.905H152.765M117.471 206.905V239.643M152.765 206.905H188.059M152.765 206.905V239.643M188.059 206.905H223.353M188.059 206.905V239.643M223.353 206.905H258.647M223.353 206.905V239.643M258.647 206.905H293.941M258.647 206.905V239.643M293.941 206.905H329.235M293.941 206.905V239.643M329.235 206.905H364.529M329.235 206.905V239.643M364.529 206.905H399.824M364.529 206.905V239.643M399.824 206.905H435.118M399.824 206.905V239.643M435.118 206.905H470.412M435.118 206.905V239.643M470.412 206.905H505.706M470.412 206.905V239.643M505.706 206.905H541M505.706 206.905V239.643M541 206.905V239.643M-23.7059 239.643H-59M-23.7059 239.643H11.5882M-23.7059 239.643V272.381M-59 239.643V272.381M11.5882 239.643H46.8824M11.5882 239.643V272.381M46.8824 239.643H82.1765M46.8824 239.643V272.381M82.1765 239.643H117.471M82.1765 239.643V272.381M117.471 239.643H152.765M117.471 239.643V272.381M152.765 239.643H188.059M152.765 239.643V272.381M188.059 239.643H223.353M188.059 239.643V272.381M223.353 239.643H258.647M223.353 239.643V272.381M258.647 239.643H293.941M258.647 239.643V272.381M293.941 239.643H329.235M293.941 239.643V272.381M329.235 239.643H364.529M329.235 239.643V272.381M364.529 239.643H399.824M364.529 239.643V272.381M399.824 239.643H435.118M399.824 239.643V272.381M435.118 239.643H470.412M435.118 239.643V272.381M470.412 239.643H505.706M470.412 239.643V272.381M505.706 239.643H541M505.706 239.643V272.381M541 239.643V272.381M-23.7059 272.381H-59M-23.7059 272.381H11.5882M-23.7059 272.381V305.119M-59 272.381V305.119M11.5882 272.381H46.8824M11.5882 272.381V305.119M46.8824 272.381H82.1765M46.8824 272.381V305.119M82.1765 272.381H117.471M82.1765 272.381V305.119M117.471 272.381H152.765M117.471 272.381V305.119M152.765 272.381H188.059M152.765 272.381V305.119M188.059 272.381H223.353M188.059 272.381V305.119M223.353 272.381H258.647M223.353 272.381V305.119M258.647 272.381H293.941M258.647 272.381V305.119M293.941 272.381H329.235M293.941 272.381V305.119M329.235 272.381H364.529M329.235 272.381V305.119M364.529 272.381H399.824M364.529 272.381V305.119M399.824 272.381H435.118M399.824 272.381V305.119M435.118 272.381H470.412M435.118 272.381V305.119M470.412 272.381H505.706M470.412 272.381V305.119M505.706 272.381H541M505.706 272.381V305.119M541 272.381V305.119M-23.7059 305.119H-59M-23.7059 305.119H11.5882M-23.7059 305.119V337.857M-59 305.119V337.857H-23.7059M11.5882 305.119H46.8824M11.5882 305.119V337.857M46.8824 305.119H82.1765M46.8824 305.119V337.857M82.1765 305.119H117.471M82.1765 305.119V337.857M117.471 305.119H152.765M117.471 305.119V337.857M152.765 305.119H188.059M152.765 305.119V337.857M188.059 305.119H223.353M188.059 305.119V337.857M223.353 305.119H258.647M223.353 305.119V337.857M258.647 305.119H293.941M258.647 305.119V337.857M293.941 305.119H329.235M293.941 305.119V337.857M329.235 305.119H364.529M329.235 305.119V337.857M364.529 305.119H399.824M364.529 305.119V337.857M399.824 305.119H435.118M399.824 305.119V337.857M435.118 305.119H470.412M435.118 305.119V337.857M470.412 305.119H505.706M470.412 305.119V337.857M505.706 305.119H541M505.706 305.119V337.857M541 305.119V337.857H505.706M-23.7059 337.857H11.5882M11.5882 337.857H46.8824M46.8824 337.857H82.1765M82.1765 337.857H117.471M117.471 337.857H152.765M152.765 337.857H188.059M188.059 337.857H223.353M223.353 337.857H258.647M258.647 337.857H293.941M293.941 337.857H329.235M329.235 337.857H364.529M364.529 337.857H399.824M399.824 337.857H435.118M435.118 337.857H470.412M470.412 337.857H505.706" stroke="url(#paint0_radial_2_772)" stroke-opacity="0.08"/>
<defs>
<radialGradient id="paint0_radial_2_772" cx="0" cy="0" r="1" gradientUnits="userSpaceOnUse" gradientTransform="translate(241 151.922) rotate(90) scale(185.516 300.453)">
<stop stop-color="white"/>
<stop offset="1" stop-color="white" stop-opacity="0"/>
</radialGradient>
</defs>
</svg>
